<svg width="371" height="90" viewBox="0 0 371 90" fill="none" xmlns="http://www.w3.org/2000/svg">
<g clip-path="url(#clip0_6_97)">
<path d="M44.2398 20.1782C44.1916 20.1773 44.1446 20.1948 44.1081 20.2275C44.0716 20.2601 44.0481 20.3055 44.0421 20.3549C43.4281 26.1841 40.2859 29.8864 35.6729 33.0466C32.2581 35.3871 30.332 36.709 29.8946 37.0126C25.9437 39.7444 22.4719 44.0549 24.4609 49.1382C24.4723 49.1683 24.4735 49.2013 24.4643 49.2321C24.4551 49.263 24.436 49.29 24.41 49.3089C23.094 50.2415 21.9717 51.3208 21.0431 52.547C20.9193 52.7107 20.8055 52.7047 20.7016 52.529C19.116 49.8271 18.5489 47.0873 19.0002 44.3095C19.7071 39.9511 22.6487 36.8838 26.1174 34.4335C28.2741 32.9118 32.6774 30.5125 35.4662 27.7597C38.5814 24.6803 39.7437 21.0069 38.9529 16.7394C37.7068 10.0236 32.6744 4.18551 27.1838 0.348341C26.6366 -0.0350763 26.6725 -0.101974 27.2916 0.147646C27.5512 0.253485 28.344 0.564013 29.67 1.07923C36.272 3.64932 42.176 9.35864 44.0062 16.4279C44.0155 16.4647 44.0371 16.4974 44.0675 16.5207C44.0978 16.544 44.1353 16.5567 44.1739 16.5567H64.6089C64.8285 16.5567 64.8725 16.6456 64.7407 16.8233C63.0912 19.0359 60.8755 20.1472 58.0938 20.1572C50.2677 20.1872 45.6497 20.1942 44.2398 20.1782Z" fill="#CB2222"/>
<path d="M29.5622 22.284L33.8157 26.7232C33.9036 26.8151 33.9026 26.9059 33.8127 26.9958L32.7793 28.0322C32.7094 28.1001 32.6405 28.1001 32.5726 28.0322L24.9102 20.3669C24.7904 20.2471 24.6446 20.1872 24.4729 20.1872C17.6573 20.1971 12.0708 20.1862 7.71339 20.1542C6.15975 20.1442 5.01649 20.0284 4.2836 19.8067C2.73196 19.3395 0.868794 18.2791 0.0240784 16.8203C0.00829917 16.793 -5.05232e-06 16.7619 2.30611e-09 16.7304C5.05693e-06 16.6988 0.00832241 16.6678 0.0241104 16.6405C0.0398983 16.6132 0.0625994 16.5905 0.0899374 16.5747C0.117275 16.559 0.148284 16.5507 0.179843 16.5507H23.721C23.8768 16.5507 24.0096 16.6066 24.1194 16.7184L27.067 19.663C27.2207 19.8167 27.2846 19.7858 27.2587 19.5701C27.057 17.9086 27.6431 16.4598 29.017 15.2237C30.994 13.4414 33.0998 12.4769 35.4632 11.6831C35.8127 11.5653 35.8496 11.6282 35.574 11.8718C33.8816 13.3605 33.1627 15.724 32.935 18.0245C32.9319 18.0544 32.9364 18.0847 32.9481 18.1125C32.9597 18.1403 32.9782 18.1647 33.0017 18.1835C33.0253 18.2023 33.0532 18.2149 33.0829 18.2201C33.1126 18.2252 33.1431 18.2229 33.1717 18.2132L35.1936 17.5392C35.2855 17.5092 35.3094 17.5372 35.2655 17.6231C34.6265 18.9391 33.8447 20.0644 32.9201 20.9989C31.9975 21.9295 30.9161 22.287 29.676 22.0713C29.4204 22.0274 29.3824 22.0983 29.5622 22.284Z" fill="#CB2222"/>
<path d="M24.449 21.7508C24.7874 22.2001 25.1559 22.5596 25.5812 22.8981C25.8688 23.1277 25.8279 23.2436 25.4584 23.2456C21.2668 23.2715 18.0407 23.2745 15.7801 23.2545C14.0907 23.2396 12.9734 23.0089 12.0268 21.6939C12.0136 21.6756 12.0057 21.6541 12.004 21.6316C12.0022 21.6091 12.0067 21.5865 12.0169 21.5664C12.0271 21.5463 12.0427 21.5294 12.0619 21.5175C12.081 21.5057 12.1031 21.4993 12.1257 21.4992C15.9838 21.4832 19.9228 21.4762 23.9427 21.4782C24.1464 21.4782 24.3152 21.5691 24.449 21.7508ZM45.3422 23.0958L45.5609 21.6939C45.5828 21.5541 45.6647 21.4842 45.8065 21.4842H52.9296C53.4888 21.4842 53.5707 21.6819 53.1753 22.0773L52.6031 22.6465C52.1898 23.0598 51.6915 23.2665 51.1084 23.2665H45.489C45.4674 23.2663 45.446 23.2615 45.4265 23.2525C45.4069 23.2434 45.3896 23.2303 45.3756 23.2141C45.3617 23.1979 45.3515 23.1789 45.3457 23.1585C45.3399 23.1381 45.3387 23.1167 45.3422 23.0958ZM27.1479 24.6594L28.3969 25.9085C28.6086 26.1202 28.5647 26.227 28.2652 26.229C21.8229 26.257 15.2889 26.258 8.66296 26.232C6.83873 26.226 5.89517 26.0703 4.86773 24.6864C4.8481 24.6604 4.83615 24.6295 4.83322 24.5971C4.8303 24.5647 4.83653 24.5322 4.85119 24.5031C4.86586 24.4741 4.88839 24.4498 4.9162 24.4329C4.94401 24.4161 4.97599 24.4074 5.00851 24.4078H26.5398C26.6527 24.4077 26.7645 24.4299 26.8688 24.4731C26.9732 24.5163 27.068 24.5796 27.1479 24.6594ZM44.2578 26.1841L44.8869 24.5066C44.9088 24.4507 44.9498 24.4228 45.0097 24.4228H59.951C59.9793 24.4223 60.0073 24.4298 60.0316 24.4444C60.056 24.4589 60.0758 24.48 60.0889 24.5052C60.1019 24.5304 60.1077 24.5587 60.1056 24.587C60.1035 24.6153 60.0935 24.6424 60.0768 24.6654C59.1182 26.0103 58.0129 26.232 56.2995 26.223C51.6805 26.2031 47.6826 26.214 44.3058 26.256C44.2975 26.2562 44.2893 26.2543 44.282 26.2504C44.2746 26.2465 44.2683 26.2408 44.2636 26.2337C44.2589 26.2266 44.2559 26.2184 44.2549 26.2098C44.2539 26.2011 44.2549 26.1923 44.2578 26.1841ZM29.8018 27.556C30.2182 27.9484 30.6196 28.4067 31.1078 28.868C31.129 28.8882 31.1451 28.9131 31.1549 28.9407C31.1648 28.9682 31.1681 28.9977 31.1646 29.0267C31.1612 29.0558 31.151 29.0836 31.1349 29.1081C31.1188 29.1325 31.0972 29.1529 31.0719 29.1675L28.9062 30.4196C28.7373 30.5159 28.5476 30.5674 28.355 30.5694C24.4829 30.5954 19.2069 30.5894 12.5271 30.5514C10.622 30.5395 7.98898 29.521 7.21316 27.5949C7.20442 27.5728 7.20119 27.5489 7.20375 27.5252C7.2063 27.5016 7.21457 27.4789 7.22783 27.4592C7.24109 27.4394 7.25896 27.4232 7.27988 27.4119C7.30081 27.4006 7.32417 27.3945 7.34796 27.3942C12.4402 27.4142 19.7012 27.4142 29.1308 27.3942C29.4643 27.3922 29.688 27.4462 29.8018 27.556ZM43.2723 28.0143C43.3402 27.8326 43.4251 27.6748 43.5269 27.541C43.5849 27.4631 43.6627 27.4242 43.7606 27.4242H58.1687C58.1958 27.424 58.2226 27.4309 58.2462 27.4442C58.2699 27.4575 58.2897 27.4768 58.3036 27.5001C58.3175 27.5234 58.3251 27.5499 58.3256 27.5771C58.3261 27.6042 58.3195 27.631 58.3065 27.6548C57.28 29.6219 55.6345 30.5954 53.37 30.5754C50.3086 30.5475 47.464 30.5524 44.836 30.5904C44.8051 30.5905 44.7748 30.5825 44.748 30.5673C44.7212 30.552 44.6989 30.5301 44.6832 30.5035L43.2753 28.0682C43.2708 28.0599 43.2681 28.0506 43.2676 28.0413C43.2671 28.032 43.2687 28.0227 43.2723 28.0143ZM24.2093 57.8699C24.1939 57.8581 24.1761 57.8497 24.1572 57.8451C24.1384 57.8406 24.1187 57.8399 24.0996 57.8433C24.0805 57.8467 24.0623 57.854 24.0461 57.8647C24.0299 57.8755 24.0161 57.8895 24.0056 57.9058C21.9128 61.1909 21.2698 64.6746 22.0766 68.357C22.1564 68.7184 22.0895 68.7484 21.8759 68.4468C21.117 67.3745 20.5239 66.2701 20.0966 65.1339C18.494 60.8923 19.6652 56.3542 22.7296 53.0562C25.9317 49.6085 32.303 45.6934 36.5026 41.2632C36.5499 41.2131 36.5758 41.1466 36.5747 41.0777C36.5736 41.0089 36.5456 40.9432 36.4966 40.8947C35.2146 39.6207 33.7818 38.5133 32.1982 37.5728C32.1756 37.5595 32.1571 37.5401 32.1449 37.5169C32.1327 37.4937 32.1272 37.4675 32.1291 37.4414C32.131 37.4152 32.1401 37.3901 32.1555 37.3689C32.1709 37.3476 32.1919 37.3311 32.2161 37.3211C33.8906 36.6322 36.8621 37.429 38.5275 38.1479C38.5714 38.1673 38.6208 38.17 38.6665 38.1557C38.7122 38.1414 38.7512 38.1109 38.7762 38.07C40.0842 35.9432 40.6883 33.6717 40.5884 31.2554C40.5844 31.1555 40.6184 31.0697 40.6903 30.9978L42.0232 29.6648C42.0368 29.6512 42.053 29.6405 42.0709 29.6335C42.0887 29.6266 42.1079 29.6234 42.1271 29.6242C42.1462 29.6251 42.165 29.6299 42.1822 29.6385C42.1994 29.647 42.2146 29.659 42.2269 29.6738C44.2309 32.0911 44.4136 35.3921 43.4071 38.3516C42.155 42.036 39.3693 44.8277 36.3019 47.314C34.6405 48.6599 32.2461 50.4851 29.1189 52.7896C28.362 53.3488 27.5373 53.9968 26.6446 54.7337C26.6211 54.7531 26.6016 54.7769 26.5873 54.8039C26.5731 54.8308 26.5643 54.8603 26.5615 54.8907C26.5587 54.921 26.562 54.9517 26.5711 54.9807C26.5802 55.0098 26.595 55.0368 26.6147 55.0602C27.713 56.3642 28.9441 57.5344 30.308 58.5708C30.3257 58.5844 30.3398 58.6019 30.3494 58.6219C30.3589 58.642 30.3636 58.664 30.363 58.6862C30.3624 58.7084 30.3566 58.7301 30.346 58.7497C30.3354 58.7692 30.3204 58.7859 30.3021 58.7985L28.37 60.0985C28.2821 60.1584 28.1873 60.1754 28.0854 60.1494C27.9237 60.1095 27.721 60.0296 27.4774 59.9098C26.3571 59.3586 25.2677 58.6787 24.2093 57.8699Z" fill="#CB2222"/>
<path d="M35.9095 56.7886C35.9296 56.7735 35.9463 56.7542 35.9582 56.7321C35.9701 56.71 35.977 56.6856 35.9785 56.6607C35.9799 56.6358 35.9758 56.611 35.9665 56.588C35.9571 56.5651 35.9428 56.5446 35.9245 56.5279C34.5606 55.2579 33.0688 54.1985 31.4493 53.3498C31.4366 53.3431 31.4258 53.3334 31.4178 53.3216C31.4098 53.3098 31.4048 53.2961 31.4033 53.2819C31.4018 53.2677 31.4039 53.2533 31.4093 53.2401C31.4147 53.2268 31.4233 53.2151 31.4343 53.206C32.0514 52.7177 32.4677 52.3253 33.3784 52.3823C35.1437 52.4961 36.7662 52.9584 38.246 53.7691C38.3198 53.81 38.406 53.8227 38.4885 53.8051C38.5711 53.7875 38.6445 53.7407 38.6953 53.6733C40.166 51.6843 41.0018 49.234 40.6753 46.8017C40.6293 46.4682 40.6004 46.1777 40.5884 45.9301C40.5824 45.8282 40.6153 45.7404 40.6872 45.6665C41.8395 44.5062 42.811 43.2332 43.6018 41.8473C43.6148 41.824 43.6336 41.8045 43.6564 41.7907C43.6792 41.7769 43.7052 41.7693 43.7319 41.7687C43.7585 41.7681 43.7849 41.7745 43.8083 41.7872C43.8317 41.8 43.8514 41.8186 43.8654 41.8413C46.6901 46.3255 45.9263 51.7203 42.5594 55.6802C39.8755 58.8314 35.9245 61.5543 33.2825 63.6871C32.4038 64.398 31.5891 65.1838 30.8382 66.0445C28.0584 69.2256 27.8278 73.4462 29.3734 77.3373C31.4163 82.4745 35.1337 86.4405 39.6059 89.6037C39.6176 89.6123 39.6261 89.6248 39.63 89.639C39.6339 89.6531 39.6329 89.6681 39.6272 89.6813C39.6215 89.6945 39.6114 89.7051 39.5988 89.7111C39.5861 89.7172 39.5717 89.7184 39.558 89.7145C35.1606 88.7579 31.3984 86.7121 28.2711 83.5768C23.0411 78.3318 21.2378 70.8282 26.0096 64.5827C27.058 63.2078 28.9481 61.7161 30.4668 60.6707C32.268 59.4325 34.0823 58.1385 35.9095 56.7886Z" fill="#CB2222"/>
<path d="M39.3064 61.126C39.2844 61.0241 39.3113 60.9383 39.3872 60.8684L42.2718 58.2563C42.289 58.2408 42.3094 58.2293 42.3316 58.2226C42.3539 58.2159 42.3774 58.2142 42.4005 58.2177C42.4236 58.2211 42.4458 58.2295 42.4655 58.2424C42.4851 58.2553 42.5019 58.2723 42.5145 58.2923C46.4984 64.6636 42.3767 70.96 37.3054 74.899C35.4502 76.3388 33.641 77.5959 31.8776 78.6703C31.8593 78.6816 31.8387 78.6888 31.8174 78.6914C31.796 78.6941 31.7744 78.692 31.7541 78.6854C31.7338 78.6788 31.7153 78.6679 31.6999 78.6534C31.6845 78.6389 31.6726 78.6211 31.665 78.6014L30.8562 76.5285C30.8378 76.4813 30.8346 76.4295 30.8469 76.3806C30.8593 76.3317 30.8866 76.2881 30.9251 76.256C34.96 72.8322 40.5794 66.9072 39.3064 61.126Z" fill="#CB2222"/>
<path d="M100.929 48.3303C100.334 49.5621 99.4844 50.4966 98.2951 51.0488L101.863 58.9069C101.99 59.1617 101.821 59.4166 101.566 59.4166H96.3411C96.1712 59.4166 96.0863 59.3316 96.0438 59.2042L92.7307 51.9832H90.5644V59.0343C90.5644 59.2467 90.3945 59.4166 90.1821 59.4166H85.2973C85.1274 59.4166 85 59.2467 85 59.0343V31.7646C85 31.5522 85.1274 31.3823 85.2973 31.3823H94.1324C98.8472 31.3823 101.693 34.0583 101.693 39.028V44.38C101.693 45.8667 101.438 47.2684 100.929 48.3303ZM96.1288 43.0632V40.3023C96.1288 37.329 95.0244 37.0316 91.7962 37.0316H90.5644V46.4189H91.7962C94.4722 46.4189 96.0438 46.3764 96.1288 43.0632ZM88.1008 56.8255V49.5621H94.2173L97.7853 56.9105C97.8703 57.1229 98.38 57.0379 98.2526 56.6556L94.6846 49.4347C97.9977 48.9674 99.1446 47.2259 99.1446 44.0827V38.7731C99.1446 34.1008 94.897 33.7185 93.5802 33.7185H87.8459C87.761 33.7185 87.591 33.8459 87.591 33.9733V56.8255C87.591 57.1229 88.1008 57.1229 88.1008 56.8255ZM98.6349 38.7731V44.0827C98.6349 48.4152 95.8739 49.0099 93.1979 49.0099H88.1008V34.2707H93.5802C98.1676 34.2707 98.6349 37.3714 98.6349 38.7731ZM112.733 59.4166C112.52 59.4166 112.393 59.2467 112.393 59.0343V31.7646C112.393 31.5522 112.52 31.3823 112.733 31.3823H127.175C127.387 31.3823 127.557 31.5522 127.557 31.7646V36.3095C127.557 36.5219 127.387 36.6918 127.175 36.6918H118V42.4686H125.136C125.348 42.4686 125.476 42.6385 125.476 42.8509V47.4808C125.476 47.6931 125.348 47.8631 125.136 47.8631H118V54.1071H127.175C127.387 54.1071 127.557 54.277 127.557 54.4893V59.0343C127.557 59.2467 127.387 59.4166 127.175 59.4166H112.733ZM114.857 34.0583V56.6556C114.857 56.9105 115.026 56.9954 115.196 56.9954H124.966C125.348 56.9954 125.263 56.4857 124.966 56.4857H115.409V45.3994H123.224C123.479 45.3994 123.479 44.8048 123.224 44.8048H115.409V34.2707H124.966C125.263 34.2707 125.348 33.7185 124.966 33.7185H115.196C115.026 33.7185 114.857 33.8459 114.857 34.0583ZM147.474 42.2137C150.702 43.7429 154.907 46.164 154.907 50.5391C154.907 51.8133 154.695 54.277 153.293 56.3583C151.722 58.6945 149.258 59.8413 145.86 59.8413C142.249 59.8413 138.044 58.0998 136.728 54.1495C136.685 54.0221 136.728 53.8947 136.855 53.8097L140.763 50.4541C140.933 50.3267 141.188 50.3267 141.315 50.5391C141.4 50.7514 141.57 51.0912 141.782 51.516C142.419 52.8328 143.948 54.1495 145.648 54.1495C146.964 54.1495 148.748 53.4274 148.748 51.3886C148.748 49.4347 146.072 48.3303 144.416 47.6931C142.504 46.9286 140.55 45.9516 138.894 44.5074C137.152 42.8933 136.303 41.1093 136.303 38.9855C136.303 33.676 141.188 31 145.817 31C149.47 31 152.189 32.9114 153.973 36.6918C154.058 36.8617 153.973 37.0741 153.845 37.1591L150.065 39.7926C149.895 39.8775 149.81 39.8775 149.64 39.6651C148.196 37.5838 146.922 36.6069 145.223 36.6069C144.331 36.6069 142.249 36.9467 142.249 38.5183C142.249 40.4297 145.775 41.4067 147.474 42.2137ZM139.743 53.9371C140.805 56.061 143.736 57.2928 146.115 57.2928C149.216 57.2928 151.722 55.169 152.061 51.9408C152.486 47.9905 149.385 46.2914 146.327 44.7623L144.968 44.1676C141.825 42.7659 139.531 41.704 139.531 38.7731C139.531 35.545 142.504 34.0583 145.435 34.0583C148.111 34.0583 149.513 35.6299 150.235 36.6069C150.49 36.9467 150.915 36.6493 150.66 36.3095C149.938 35.4175 148.408 33.5486 145.435 33.5486C142.08 33.5486 139.021 35.2051 139.021 38.7731C139.021 41.9589 141.57 43.1907 144.798 44.6773L146.115 45.3145C150.32 47.3109 151.849 49.1798 151.509 51.8983C150.872 56.2309 147.559 56.7831 146.115 56.7831C142.929 56.7831 140.805 54.8716 140.168 53.6823C139.956 53.4699 139.658 53.6823 139.743 53.9371ZM177.755 49.6046V48.2878C177.755 48.0754 177.925 47.9055 178.138 47.9055H182.98C183.192 47.9055 183.362 48.0754 183.362 48.2878V50.9638C183.362 57.2078 180.007 59.8413 173.678 59.8413C167.773 59.8413 163.908 57.5051 163.908 50.9638V39.7926C163.908 33.5061 167.349 31 173.678 31C179.667 31 183.362 33.2937 183.362 39.7926V40.6846C183.362 40.897 183.192 41.0669 182.98 41.0669H178.095C177.883 41.0669 177.713 40.897 177.713 40.6846V40.005C177.713 37.6688 175.971 36.6918 173.89 36.6918H173.38C171.979 36.6918 171.044 37.0741 170.407 37.9236C169.812 38.7307 169.6 39.7926 169.6 41.1943V49.6046C169.6 53.3 171.681 54.1071 173.38 54.1071H173.89C176.566 54.1071 177.67 52.3231 177.755 49.6046ZM173.593 33.6335C169.048 33.6335 166.414 35.2476 166.414 40.4297V50.6665C166.414 55.3813 168.835 57.1229 173.593 57.1229C178.053 57.1229 180.729 55.5088 180.729 50.624C180.729 50.2842 180.219 50.2842 180.219 50.624C180.219 54.9141 177.883 56.6556 173.593 56.6556C169.43 56.6556 166.881 55.2114 166.881 50.6665V40.4297C166.881 36.0122 168.963 34.1008 173.593 34.1008C179.624 34.1008 179.837 37.9236 179.837 38.3484C179.837 38.7307 180.431 38.7731 180.431 38.3484C180.431 34.8229 176.863 33.6335 173.593 33.6335ZM207.23 49.6046V31.7646C207.23 31.5522 207.399 31.3823 207.612 31.3823H212.454C212.666 31.3823 212.836 31.5522 212.836 31.7646V50.9638C212.836 57.0804 209.481 59.8413 203.152 59.8413C197.163 59.8413 193.425 57.4627 193.425 50.9638V31.7646C193.425 31.5522 193.595 31.3823 193.807 31.3823H198.692C198.904 31.3823 199.074 31.5522 199.074 31.7646V49.6046C199.074 53.3 201.155 54.1071 202.897 54.1071H203.407C206.04 54.1071 207.23 52.3231 207.23 49.6046ZM196.058 34.1008V50.624C196.058 54.4469 198.649 57.2078 202.685 57.2078H203.746C207.782 57.2078 210.415 54.3194 210.415 50.624V34.1008C210.415 33.7185 209.906 33.676 209.906 34.1008V50.624C209.906 54.1071 207.399 56.6556 203.746 56.6556H202.685C199.117 56.6556 196.568 54.3619 196.568 50.624V34.1008C196.568 33.7185 196.058 33.7185 196.058 34.1008ZM224.003 59.4166C223.791 59.4166 223.664 59.2467 223.664 59.0343V31.7646C223.664 31.5522 223.791 31.3823 224.003 31.3823H238.445C238.658 31.3823 238.828 31.5522 238.828 31.7646V36.3095C238.828 36.5219 238.658 36.6918 238.445 36.6918H229.27V42.4686H236.406C236.619 42.4686 236.746 42.6385 236.746 42.8509V47.4808C236.746 47.6931 236.619 47.8631 236.406 47.8631H229.27V54.1071H238.445C238.658 54.1071 238.828 54.277 238.828 54.4893V59.0343C238.828 59.2467 238.658 59.4166 238.445 59.4166H224.003ZM226.127 34.0583V56.6556C226.127 56.9105 226.297 56.9954 226.467 56.9954H236.237C236.619 56.9954 236.534 56.4857 236.237 56.4857H226.679V45.3994H234.495C234.75 45.3994 234.75 44.8048 234.495 44.8048H226.679V34.2707H236.237C236.534 34.2707 236.619 33.7185 236.237 33.7185H226.467C226.297 33.7185 226.127 33.8459 226.127 34.0583ZM284.184 48.3303C283.589 49.5621 282.739 50.4966 281.55 51.0488L285.118 58.9069C285.246 59.1617 285.076 59.4166 284.821 59.4166H279.596C279.426 59.4166 279.341 59.3316 279.299 59.2042L275.986 51.9832H273.819V59.0343C273.819 59.2467 273.65 59.4166 273.437 59.4166H268.552C268.383 59.4166 268.255 59.2467 268.255 59.0343V31.7646C268.255 31.5522 268.383 31.3823 268.552 31.3823H277.387C282.102 31.3823 284.948 34.0583 284.948 39.028V44.38C284.948 45.8667 284.693 47.2684 284.184 48.3303ZM279.384 43.0632V40.3023C279.384 37.329 278.279 37.0316 275.051 37.0316H273.819V46.4189H275.051C277.727 46.4189 279.299 46.3764 279.384 43.0632ZM271.356 56.8255V49.5621H277.472L281.04 56.9105C281.125 57.1229 281.635 57.0379 281.508 56.6556L277.94 49.4347C281.253 48.9674 282.4 47.2259 282.4 44.0827V38.7731C282.4 34.1008 278.152 33.7185 276.835 33.7185H271.101C271.016 33.7185 270.846 33.8459 270.846 33.9733V56.8255C270.846 57.1229 271.356 57.1229 271.356 56.8255ZM281.89 38.7731V44.0827C281.89 48.4152 279.129 49.0099 276.453 49.0099H271.356V34.2707H276.835C281.423 34.2707 281.89 37.3714 281.89 38.7731ZM309.155 49.6046V31.7646C309.155 31.5522 309.325 31.3823 309.538 31.3823H314.38C314.592 31.3823 314.762 31.5522 314.762 31.7646V50.9638C314.762 57.0804 311.407 59.8413 305.078 59.8413C299.089 59.8413 295.351 57.4627 295.351 50.9638V31.7646C295.351 31.5522 295.521 31.3823 295.733 31.3823H300.618C300.83 31.3823 301 31.5522 301 31.7646V49.6046C301 53.3 303.081 54.1071 304.823 54.1071H305.333C307.966 54.1071 309.155 52.3231 309.155 49.6046ZM297.984 34.1008V50.624C297.984 54.4469 300.575 57.2078 304.61 57.2078H305.672C309.708 57.2078 312.341 54.3194 312.341 50.624V34.1008C312.341 33.7185 311.831 33.676 311.831 34.1008V50.624C311.831 54.1071 309.325 56.6556 305.672 56.6556H304.61C301.042 56.6556 298.494 54.3619 298.494 50.624V34.1008C298.494 33.7185 297.984 33.7185 297.984 34.1008ZM335.147 42.2137C338.375 43.7429 342.58 46.164 342.58 50.5391C342.58 51.8133 342.368 54.277 340.966 56.3583C339.394 58.6945 336.931 59.8413 333.533 59.8413C329.922 59.8413 325.717 58.0998 324.4 54.1495C324.358 54.0221 324.4 53.8947 324.528 53.8097L328.435 50.4541C328.605 50.3267 328.86 50.3267 328.988 50.5391C329.073 50.7514 329.242 51.0912 329.455 51.516C330.092 52.8328 331.621 54.1495 333.32 54.1495C334.637 54.1495 336.421 53.4274 336.421 51.3886C336.421 49.4347 333.745 48.3303 332.088 47.6931C330.177 46.9286 328.223 45.9516 326.566 44.5074C324.825 42.8933 323.975 41.1093 323.975 38.9855C323.975 33.676 328.86 31 333.49 31C337.143 31 339.861 32.9114 341.645 36.6918C341.73 36.8617 341.645 37.0741 341.518 37.1591L337.738 39.7926C337.568 39.8775 337.483 39.8775 337.313 39.6651C335.869 37.5838 334.594 36.6069 332.895 36.6069C332.003 36.6069 329.922 36.9467 329.922 38.5183C329.922 40.4297 333.448 41.4067 335.147 42.2137ZM327.416 53.9371C328.478 56.061 331.409 57.2928 333.787 57.2928C336.888 57.2928 339.394 55.169 339.734 51.9408C340.159 47.9905 337.058 46.2914 334 44.7623L332.641 44.1676C329.497 42.7659 327.204 41.704 327.204 38.7731C327.204 35.545 330.177 34.0583 333.108 34.0583C335.784 34.0583 337.185 35.6299 337.908 36.6069C338.162 36.9467 338.587 36.6493 338.332 36.3095C337.61 35.4175 336.081 33.5486 333.108 33.5486C329.752 33.5486 326.694 35.2051 326.694 38.7731C326.694 41.9589 329.242 43.1907 332.471 44.6773L333.787 45.3145C337.993 47.3109 339.522 49.1798 339.182 51.8983C338.545 56.2309 335.232 56.7831 333.787 56.7831C330.602 56.7831 328.478 54.8716 327.841 53.6823C327.628 53.4699 327.331 53.6823 327.416 53.9371ZM364.578 42.4261V31.7646C364.578 31.5522 364.748 31.3823 364.961 31.3823H369.803C370.015 31.3823 370.185 31.5522 370.185 31.7646V59.0343C370.185 59.2467 370.015 59.4166 369.803 59.4166H364.961C364.748 59.4166 364.578 59.2467 364.578 59.0343V47.7356H357.697V59.0343C357.697 59.2467 357.527 59.4166 357.315 59.4166H352.473C352.26 59.4166 352.133 59.2467 352.133 59.0343V31.7646C352.133 31.5522 352.26 31.3823 352.473 31.3823H357.315C357.527 31.3823 357.697 31.5522 357.697 31.7646V42.4261H364.578ZM354.596 56.7831C354.596 57.1229 355.149 57.0804 355.149 56.7831V45.3994H367.084V56.7831C367.084 57.0804 367.552 57.1229 367.552 56.7831V33.9309C367.552 33.6335 367.084 33.5486 367.084 33.9309V44.8048H355.149V33.9309C355.149 33.6335 354.596 33.6335 354.596 33.9309V56.7831Z" fill="#EEEEEE"/>
</g>
<defs>
<clipPath id="clip0_6_97">
<rect width="370.185" height="89.7167" fill="white"/>
</clipPath>
</defs>
</svg>
