<svg width="49" height="74" viewBox="0 0 49 74" fill="none" xmlns="http://www.w3.org/2000/svg">
<path d="M33.4455 16.6433C33.4091 16.6426 33.3736 16.6571 33.3459 16.684C33.3183 16.7109 33.3006 16.7484 33.2961 16.7891C32.8318 21.5971 30.4563 24.6509 26.9689 27.2575C24.3873 29.1879 22.9312 30.2783 22.6006 30.5287C19.6136 32.7819 16.989 36.3373 18.4927 40.5301C18.5013 40.5549 18.5022 40.5821 18.4952 40.6076C18.4883 40.633 18.4738 40.6553 18.4542 40.6709C17.4593 41.4401 16.6108 42.3304 15.9088 43.3417C15.8152 43.4768 15.7291 43.4718 15.6506 43.3269C14.4519 41.0983 14.0232 38.8385 14.3644 36.5473C14.8988 32.9524 17.1226 30.4224 19.745 28.4014C21.3754 27.1463 24.7043 25.1673 26.8126 22.8967C29.1678 20.3568 30.0464 17.3269 29.4486 13.807C28.5065 8.26768 24.7021 3.45228 20.5511 0.287318C20.1375 -0.0289316 20.1647 -0.0841101 20.6327 0.121781C20.8289 0.209079 21.4283 0.465209 22.4307 0.890169C27.4218 3.01003 31.8852 7.71918 33.2689 13.55C33.2759 13.5804 33.2922 13.6073 33.3152 13.6266C33.3382 13.6458 33.3665 13.6563 33.3957 13.6563H48.8445C49.0106 13.6563 49.0438 13.7296 48.9442 13.8762C47.6971 15.7012 46.0221 16.6178 43.9191 16.6261C38.0026 16.6508 34.5114 16.6565 33.4455 16.6433Z" fill="#CB2222"/>
<path d="M22.349 18.3802L25.5647 22.0418C25.6311 22.1176 25.6303 22.1925 25.5624 22.2667L24.7811 23.1215C24.7283 23.1775 24.6762 23.1775 24.6249 23.1215L18.8321 16.799C18.7416 16.7002 18.6313 16.6508 18.5015 16.6508C13.3489 16.659 9.1255 16.6499 5.83132 16.6236C4.65677 16.6153 3.79246 16.5198 3.2384 16.337C2.06536 15.9515 0.656808 15.0769 0.0182033 13.8737C0.00627417 13.8512 -3.81955e-06 13.8256 1.74342e-09 13.7995C3.82304e-06 13.7735 0.00629174 13.7479 0.0182274 13.7254C0.0301631 13.7029 0.0473252 13.6842 0.0679927 13.6712C0.0886602 13.6582 0.112103 13.6513 0.135961 13.6513H17.9331C18.0509 13.6513 18.1513 13.6974 18.2343 13.7897L20.4626 16.2184C20.5789 16.3452 20.6272 16.3197 20.6076 16.1418C20.4551 14.7714 20.8982 13.5764 21.9368 12.5568C23.4315 11.0867 25.0234 10.2912 26.8102 9.63644C27.0744 9.53926 27.1023 9.59115 26.894 9.7921C25.6145 11.02 25.071 12.9694 24.8989 14.8669C24.8965 14.8916 24.8999 14.9166 24.9087 14.9395C24.9175 14.9625 24.9315 14.9826 24.9493 14.9981C24.9671 15.0136 24.9882 15.024 25.0107 15.0283C25.0331 15.0325 25.0562 15.0306 25.0778 15.0226L26.6064 14.4667C26.6758 14.442 26.6939 14.465 26.6607 14.5358C26.1776 15.6213 25.5866 16.5495 24.8876 17.3203C24.1901 18.0879 23.3726 18.3827 22.435 18.2048C22.2418 18.1686 22.2131 18.2271 22.349 18.3802Z" fill="#CB2222"/>
<path d="M18.4833 17.9405C18.7392 18.3111 19.0178 18.6075 19.3393 18.8867C19.5567 19.0762 19.5258 19.1717 19.2465 19.1733C16.0776 19.1947 13.6387 19.1972 11.9297 19.1807C10.6525 19.1684 9.80783 18.9781 9.09223 17.8935C9.08225 17.8784 9.07626 17.8606 9.07494 17.8421C9.07361 17.8235 9.077 17.8049 9.08472 17.7884C9.09244 17.7718 9.10419 17.7578 9.1187 17.748C9.13321 17.7383 9.14991 17.733 9.16696 17.7329C12.0837 17.7197 15.0616 17.714 18.1006 17.7156C18.2546 17.7156 18.3822 17.7906 18.4833 17.9405ZM34.2786 19.0498L34.4439 17.8935C34.4605 17.7782 34.5224 17.7206 34.6296 17.7206H40.0147C40.4375 17.7206 40.4994 17.8836 40.2004 18.2098L39.7679 18.6792C39.4554 19.0202 39.0787 19.1906 38.6379 19.1906H34.3896C34.3733 19.1905 34.3571 19.1865 34.3424 19.179C34.3276 19.1716 34.3144 19.1608 34.3039 19.1474C34.2934 19.134 34.2856 19.1184 34.2813 19.1015C34.2769 19.0847 34.276 19.067 34.2786 19.0498ZM20.5237 20.3395L21.468 21.3698C21.6281 21.5444 21.5948 21.6325 21.3684 21.6342C16.4981 21.6572 11.5583 21.658 6.54913 21.6366C5.17002 21.6317 4.45668 21.5032 3.67994 20.3617C3.6651 20.3404 3.65606 20.3148 3.65385 20.2881C3.65164 20.2614 3.65635 20.2346 3.66744 20.2106C3.67853 20.1867 3.69556 20.1666 3.71658 20.1527C3.73761 20.1388 3.76179 20.1316 3.78637 20.132H20.064C20.1494 20.1319 20.2339 20.1502 20.3128 20.1858C20.3917 20.2215 20.4633 20.2737 20.5237 20.3395ZM33.4589 21.5971L33.9344 20.2135C33.951 20.1674 33.982 20.1443 34.0273 20.1443H45.3229C45.3443 20.144 45.3654 20.1501 45.3838 20.1622C45.4023 20.1742 45.4172 20.1915 45.4271 20.2123C45.437 20.2331 45.4414 20.2565 45.4398 20.2798C45.4381 20.3031 45.4306 20.3255 45.418 20.3444C44.6933 21.4538 43.8577 21.6366 42.5624 21.6292C39.0704 21.6127 36.048 21.6218 33.4951 21.6564C33.4888 21.6566 33.4826 21.655 33.4771 21.6518C33.4715 21.6486 33.4668 21.6439 33.4632 21.638C33.4596 21.6322 33.4574 21.6254 33.4566 21.6183C33.4559 21.6112 33.4566 21.6039 33.4589 21.5971ZM22.5301 22.7287C22.8449 23.0523 23.1483 23.4303 23.5175 23.8108C23.5334 23.8275 23.5456 23.8481 23.5531 23.8708C23.5605 23.8935 23.563 23.9178 23.5604 23.9418C23.5578 23.9657 23.5501 23.9887 23.5379 24.0089C23.5257 24.029 23.5094 24.0458 23.4903 24.0579L21.853 25.0907C21.7254 25.17 21.5819 25.2126 21.4363 25.2142C18.509 25.2356 14.5204 25.2307 9.47041 25.1994C8.03015 25.1895 6.03961 24.3494 5.45309 22.7608C5.44648 22.7425 5.44404 22.7228 5.44597 22.7033C5.4479 22.6838 5.45415 22.6651 5.46417 22.6488C5.4742 22.6325 5.48771 22.6191 5.50353 22.6098C5.51935 22.6005 5.53701 22.5955 5.55499 22.5953C9.40474 22.6117 14.894 22.6117 22.0228 22.5953C22.275 22.5936 22.4441 22.6381 22.5301 22.7287ZM32.7138 23.1067C32.7651 22.9568 32.8293 22.8267 32.9063 22.7163C32.9501 22.6521 33.009 22.62 33.0829 22.62H43.9755C43.996 22.6198 44.0162 22.6255 44.0341 22.6364C44.052 22.6474 44.0669 22.6633 44.0775 22.6825C44.088 22.7018 44.0937 22.7237 44.0941 22.7461C44.0945 22.7685 44.0895 22.7906 44.0796 22.8102C43.3036 24.4326 42.0596 25.2356 40.3476 25.2191C38.0333 25.1961 35.8827 25.2002 33.8959 25.2315C33.8726 25.2316 33.8497 25.225 33.8294 25.2124C33.8092 25.1999 33.7923 25.1817 33.7804 25.1598L32.7161 23.1512C32.7126 23.1443 32.7106 23.1367 32.7102 23.129C32.7098 23.1213 32.7111 23.1136 32.7138 23.1067ZM18.3022 47.7321C18.2905 47.7224 18.2771 47.7155 18.2628 47.7117C18.2485 47.7079 18.2337 47.7074 18.2192 47.7102C18.2048 47.713 18.191 47.719 18.1788 47.7279C18.1665 47.7368 18.1561 47.7483 18.1482 47.7618C16.566 50.4713 16.0799 53.3448 16.6898 56.3821C16.7502 56.6802 16.6996 56.7049 16.5381 56.4562C15.9644 55.5717 15.516 54.6608 15.1929 53.7236C13.9814 50.2251 14.8668 46.482 17.1835 43.7617C19.6043 40.918 24.421 37.6888 27.5959 34.0346C27.6317 33.9933 27.6513 33.9384 27.6504 33.8816C27.6496 33.8248 27.6284 33.7707 27.5914 33.7307C26.6222 32.6798 25.5389 31.7665 24.3418 30.9907C24.3247 30.9797 24.3107 30.9638 24.3015 30.9446C24.2923 30.9255 24.2881 30.9039 24.2895 30.8823C24.291 30.8607 24.2979 30.84 24.3095 30.8225C24.3211 30.805 24.337 30.7914 24.3553 30.7831C25.6212 30.2149 27.8677 30.8721 29.1268 31.4651C29.1599 31.481 29.1972 31.4833 29.2318 31.4715C29.2664 31.4597 29.2958 31.4346 29.3147 31.4008C30.3036 29.6466 30.7603 27.773 30.6848 25.78C30.6818 25.6976 30.7074 25.6268 30.7618 25.5675L31.7695 24.468C31.7797 24.4568 31.792 24.448 31.8055 24.4423C31.819 24.4365 31.8335 24.4339 31.848 24.4346C31.8625 24.4353 31.8767 24.4393 31.8897 24.4463C31.9027 24.4534 31.9142 24.4633 31.9235 24.4755C33.4385 26.4693 33.5766 29.192 32.8157 31.6331C31.8691 34.672 29.7631 36.9747 27.4442 39.0254C26.1881 40.1356 24.378 41.6411 22.0138 43.5418C21.4416 44.003 20.8181 44.5375 20.1433 45.1453C20.1255 45.1613 20.1108 45.181 20.1 45.2032C20.0892 45.2254 20.0826 45.2498 20.0804 45.2748C20.0783 45.2999 20.0808 45.3251 20.0877 45.3491C20.0946 45.3731 20.1058 45.3954 20.1206 45.4146C20.951 46.4902 21.8817 47.4554 22.9128 48.3103C22.9261 48.3215 22.9368 48.3359 22.9441 48.3524C22.9513 48.369 22.9548 48.3871 22.9544 48.4054C22.9539 48.4237 22.9495 48.4417 22.9415 48.4578C22.9335 48.4739 22.9221 48.4877 22.9083 48.4981L21.4476 49.5704C21.3812 49.6198 21.3095 49.6338 21.2325 49.6123C21.1102 49.5794 20.957 49.5135 20.7728 49.4147C19.9259 48.9601 19.1023 48.3992 18.3022 47.7321Z" fill="#CB2222"/>
<path d="M27.1481 46.8402C27.1633 46.8278 27.1758 46.8119 27.1849 46.7936C27.1939 46.7754 27.1991 46.7553 27.2002 46.7348C27.2013 46.7142 27.1982 46.6938 27.1911 46.6748C27.1841 46.6559 27.1732 46.639 27.1594 46.6253C26.1283 45.5777 25.0005 44.7039 23.7761 44.0039C23.7666 43.9984 23.7584 43.9904 23.7523 43.9806C23.7463 43.9709 23.7425 43.9596 23.7414 43.9479C23.7403 43.9361 23.7418 43.9243 23.7459 43.9134C23.75 43.9025 23.7565 43.8928 23.7648 43.8853C24.2313 43.4825 24.5461 43.1589 25.2345 43.2058C26.5691 43.2997 27.7957 43.681 28.9144 44.3498C28.9703 44.3834 29.0354 44.394 29.0978 44.3794C29.1602 44.3649 29.2157 44.3263 29.2541 44.2707C30.366 42.6302 30.9978 40.6091 30.751 38.6029C30.7162 38.3278 30.6944 38.0882 30.6853 37.8839C30.6808 37.7999 30.7057 37.7275 30.76 37.6665C31.6311 36.7095 32.3656 35.6595 32.9634 34.5164C32.9732 34.4972 32.9875 34.4811 33.0047 34.4697C33.022 34.4583 33.0416 34.4521 33.0618 34.4516C33.0819 34.4511 33.1018 34.4564 33.1196 34.4669C33.1373 34.4774 33.1521 34.4927 33.1627 34.5114C35.2982 38.2101 34.7207 42.6598 32.1754 45.9261C30.1463 48.5252 27.1594 50.7711 25.162 52.5303C24.4978 53.1166 23.8818 53.7648 23.3142 54.4747C21.2127 57.0986 21.0383 60.5798 22.2068 63.7892C23.7512 68.0265 26.5615 71.2977 29.9425 73.9067C29.9514 73.9138 29.9578 73.9241 29.9608 73.9359C29.9637 73.9476 29.963 73.9599 29.9586 73.9708C29.9543 73.9817 29.9467 73.9904 29.9372 73.9954C29.9276 74.0004 29.9167 74.0014 29.9063 73.9982C26.5819 73.2092 23.7376 71.5217 21.3734 68.9357C17.4195 64.6095 16.0563 58.4204 19.6637 53.269C20.4563 52.1349 21.8852 50.9045 23.0334 50.0423C24.3951 49.021 25.7667 47.9537 27.1481 46.8402Z" fill="#CB2222"/>
<path d="M29.7153 50.4178C29.6987 50.3338 29.7191 50.263 29.7765 50.2053L31.9572 48.0509C31.9702 48.0381 31.9857 48.0286 32.0025 48.0231C32.0193 48.0176 32.037 48.0162 32.0545 48.019C32.072 48.0218 32.0887 48.0288 32.1036 48.0394C32.1185 48.05 32.1312 48.0641 32.1407 48.0805C35.1525 53.3357 32.0365 58.5291 28.2026 61.7781C26.8001 62.9657 25.4323 64.0025 24.0992 64.8887C24.0854 64.898 24.0698 64.904 24.0537 64.9061C24.0375 64.9083 24.0212 64.9066 24.0058 64.9012C23.9905 64.8958 23.9765 64.8867 23.9648 64.8747C23.9532 64.8628 23.9442 64.8481 23.9385 64.8319L23.327 63.1221C23.3131 63.0831 23.3107 63.0405 23.32 63.0001C23.3294 62.9598 23.35 62.9238 23.3791 62.8973C26.4295 60.0733 30.6778 55.1863 29.7153 50.4178Z" fill="#CB2222"/>
</svg>
